# This file uses centimeters as units for non-parametric coordinates.

mtllib rcfDoorTrim.mtl
g default
v 74.787842 90.478233 -66.788147
v 76.614487 90.478233 -66.788147
v 60.695793 116.613586 -72.991791
v 62.522415 116.613586 -72.991791
v 60.695793 116.613586 -75.627670
v 62.522415 116.613586 -75.627670
v 74.787842 90.478233 -69.424026
v 76.614487 90.478233 -69.424026
v 76.112762 90.478233 -66.788147
v 62.020691 116.613586 -72.991791
v 76.614487 90.478226 -67.190697
v 62.522415 116.613586 -73.394341
v 76.614487 90.478233 -69.296028
v 62.522415 116.613586 -75.499672
v 76.379539 90.478233 -69.424026
v 62.287472 116.613586 -75.627670
v 75.036285 90.478233 -69.424026
v 60.944233 116.613586 -75.627670
v 74.787842 90.478233 -69.165802
v 60.695793 116.613586 -75.369446
v 74.933929 90.478233 -66.788147
v 60.841873 116.613586 -72.991791
v 74.787842 90.478233 -67.006142
v 60.695793 116.613586 -73.209785
v -74.787842 90.478233 -66.788147
v -76.614487 90.478233 -66.788147
v -60.695793 116.613586 -72.991791
v -62.522415 116.613586 -72.991791
v -60.695793 116.613586 -75.627670
v -62.522415 116.613586 -75.627670
v -74.787842 90.478233 -69.424026
v -76.614487 90.478233 -69.424026
v -76.112762 90.478233 -66.788147
v -62.020691 116.613586 -72.991791
v -76.614487 90.478226 -67.190697
v -62.522415 116.613586 -73.394341
v -76.614487 90.478233 -69.296028
v -62.522415 116.613586 -75.499672
v -76.379539 90.478233 -69.424026
v -62.287472 116.613586 -75.627670
v -75.036285 90.478233 -69.424026
v -60.944233 116.613586 -75.627670
v -74.787842 90.478233 -69.165802
v -60.695793 116.613586 -75.369446
v -74.933929 90.478233 -66.788147
v -60.841873 116.613586 -72.991791
v -74.787842 90.478233 -67.006142
v -60.695793 116.613586 -73.209785
vt 0.564903 0.001811
vt 0.567423 0.001811
vt 0.324335 0.452646
vt 0.321815 0.452646
vt 0.587758 0.001811
vt 0.344670 0.452646
vt 0.596413 0.001811
vt 0.353324 0.452646
vt 0.631870 0.001811
vt 0.635922 0.001811
vt 0.879011 0.452646
vt 0.874958 0.452646
vt 0.608699 0.001811
vt 0.851787 0.452646
vt 0.604413 0.001811
vt 0.847501 0.452646
vt 0.001992 0.001811
vt 0.008936 0.001811
vt 0.115949 0.452647
vt 0.109005 0.452647
vt 0.045253 0.001811
vt 0.152266 0.452647
vt 0.047461 0.001811
vt 0.154474 0.452647
vt 0.952539 0.456638
vt 0.956993 0.456638
vt 0.849980 0.907473
vt 0.845526 0.907473
vt 0.994248 0.456638
vt 0.887235 0.907473
vt 0.998008 0.456638
vt 0.890995 0.907473
vt 0.596303 0.456638
vt 0.839391 0.907473
vt 0.836871 0.907473
vt 0.593783 0.456638
vt 0.816536 0.907473
vt 0.573448 0.456638
vt 0.807882 0.907473
vt 0.564793 0.456638
vt 0.531201 0.456638
vt 0.288113 0.907473
vt 0.284060 0.907473
vt 0.527149 0.456638
vt 0.554372 0.456638
vt 0.311284 0.907473
vt 0.558658 0.456638
vt 0.315570 0.907473
vt 0.314483 0.001811
vt 0.207470 0.452647
vt 0.200526 0.452647
vt 0.307539 0.001811
vt 0.164209 0.452647
vt 0.271222 0.001811
vt 0.162001 0.452647
vt 0.269014 0.001811
vt 0.170912 0.456638
vt 0.277925 0.907473
vt 0.273471 0.907473
vt 0.166458 0.456638
vt 0.236216 0.907473
vt 0.129203 0.456638
vt 0.232456 0.907473
vt 0.125443 0.456638
vn 0.000000 0.230946 0.972967
vn 0.000000 0.230949 0.972966
vn 0.000000 0.230948 0.972966
vn 0.000000 0.230946 0.972967
vn 0.000000 -0.230950 -0.972966
vn 0.000000 -0.230949 -0.972966
vn 0.000000 -0.230949 -0.972966
vn 0.000000 -0.230949 -0.972966
vn 0.880203 0.474597 -0.000010
vn 0.880201 0.474600 -0.000000
vn 0.880201 0.474601 0.000000
vn 0.880203 0.474597 -0.000010
vn -0.880201 -0.474601 0.000000
vn -0.880201 -0.474600 0.000000
vn -0.880201 -0.474600 0.000000
vn -0.880201 -0.474601 0.000000
vn 0.000000 0.230949 0.972966
vn 0.000000 0.230950 0.972966
vn 0.000000 0.230950 0.972966
vn 0.000000 0.230949 0.972966
vn 0.880201 0.474601 0.000002
vn 0.880201 0.474601 0.000002
vn 0.880199 0.474604 0.000000
vn 0.880199 0.474604 0.000000
vn 0.000000 -0.230948 -0.972966
vn 0.000000 -0.230949 -0.972966
vn 0.000000 -0.230945 -0.972967
vn 0.000000 -0.230945 -0.972967
vn -0.880202 -0.474600 0.000000
vn -0.880201 -0.474600 0.000000
vn -0.880202 -0.474599 0.000000
vn -0.880202 -0.474599 0.000000
vn 0.000000 0.230945 0.972967
vn 0.000000 0.230945 0.972967
vn 0.000000 0.230948 0.972966
vn 0.000000 0.230949 0.972966
vn 0.000000 -0.230949 -0.972966
vn 0.000000 -0.230949 -0.972966
vn 0.000000 -0.230949 -0.972966
vn 0.000000 -0.230949 -0.972966
vn -0.880203 0.474597 -0.000010
vn -0.880203 0.474597 -0.000010
vn -0.880201 0.474601 0.000000
vn -0.880201 0.474600 -0.000000
vn 0.880201 -0.474602 0.000000
vn 0.880201 -0.474602 0.000000
vn 0.880201 -0.474600 0.000000
vn 0.880202 -0.474600 0.000000
vn 0.000000 0.230949 0.972966
vn 0.000000 0.230949 0.972966
vn 0.000000 0.230950 0.972966
vn 0.000000 0.230950 0.972966
vn -0.880201 0.474601 0.000002
vn -0.880201 0.474601 0.000002
vn -0.880198 0.474606 0.000000
vn -0.880198 0.474606 0.000000
vn 0.000000 -0.230948 -0.972966
vn 0.000000 -0.230949 -0.972966
vn 0.000000 -0.230944 -0.972967
vn 0.000000 -0.230944 -0.972967
vn 0.880202 -0.474600 0.000000
vn 0.880202 -0.474600 0.000000
vn 0.880202 -0.474600 0.000000
vn 0.880202 -0.474600 0.000000
s 1
g rcfDoorTrim
usemtl VRayMtl1SG2
f 1/1/1 21/2/2 22/3/3 3/4/4
s 2
f 16/9/5 6/10/6 8/11/7 15/12/8
s 3
f 2/17/9 11/18/10 12/19/11 4/20/12
s 4
f 7/25/13 19/26/14 20/27/15 5/28/16
s 1
f 9/5/17 2/7/18 4/8/19 10/6/20
s 3
f 11/18/10 13/21/21 14/22/22 12/19/11
f 13/21/21 8/23/23 6/24/24 14/22/22
s 2
f 18/13/25 16/9/5 15/12/8 17/14/26
f 5/15/27 18/13/25 17/14/26 7/16/28
s 4
f 19/26/14 23/29/29 24/30/30 20/27/15
s 1
f 21/2/2 9/5/17 10/6/20 22/3/3
s 4
f 23/29/29 1/31/31 3/32/32 24/30/30
s 5
f 25/33/33 27/34/34 46/35/35 45/36/36
s 6
f 40/41/37 39/42/38 32/43/39 30/44/40
s 7
f 26/49/41 28/50/42 36/51/43 35/52/44
s 8
f 31/57/45 29/58/46 44/59/47 43/60/48
s 5
f 33/38/49 34/37/50 28/39/51 26/40/52
s 7
f 35/52/44 36/51/43 38/53/53 37/54/54
f 37/54/54 38/53/53 30/55/55 32/56/56
s 6
f 42/45/57 41/46/58 39/42/38 40/41/37
f 29/47/59 31/48/60 41/46/58 42/45/57
s 8
f 43/60/48 44/59/47 48/61/61 47/62/62
s 5
f 45/36/36 46/35/35 34/37/50 33/38/49
s 8
f 47/62/62 48/61/61 27/63/63 25/64/64
