# This file uses centimeters as units for non-parametric coordinates.

mtllib rcfMirrors.mtl
g default
v 86.549622 98.797600 22.437605
v 92.058586 98.450729 19.792189
v 95.554451 97.664268 18.171825
v 86.506783 94.604401 22.438175
v 86.482559 91.223000 22.432724
v 92.133423 94.170982 19.796429
v 92.208809 90.696617 19.792740
v 95.629265 93.976372 18.296942
v 95.585297 90.968193 18.293243
v 83.448029 100.778252 24.244905
v 86.354355 101.492264 22.408543
v 82.593834 98.771179 24.829811
v 91.791481 101.180405 19.904398
v 95.199333 100.230286 18.199562
v 97.736610 99.283005 16.802601
v 99.830658 98.080399 15.885041
v 82.587425 92.390320 24.760120
v 82.474823 95.441788 24.768782
v 101.267677 95.108902 15.262711
v 101.171432 91.625000 15.252878
v 86.713776 87.980392 22.384079
v 82.972420 88.605530 24.354345
v 91.894569 87.708466 19.880888
v 96.538734 88.424065 17.496487
v 100.073143 89.632561 15.645094
v -86.549622 98.797600 22.437605
v -92.058586 98.450729 19.792189
v -95.554451 97.664268 18.171825
v -86.506783 94.604401 22.438175
v -86.482559 91.223000 22.432724
v -92.133423 94.170982 19.796429
v -92.208809 90.696617 19.792740
v -95.629265 93.976372 18.296942
v -95.585297 90.968193 18.293243
v -83.448029 100.778252 24.244905
v -86.354355 101.492264 22.408543
v -82.593834 98.771179 24.829811
v -91.791481 101.180405 19.904398
v -95.199333 100.230286 18.199562
v -97.736610 99.283005 16.802601
v -99.830658 98.080399 15.885041
v -82.587425 92.390320 24.760120
v -82.474823 95.441788 24.768782
v -101.267677 95.108902 15.262711
v -101.171432 91.625000 15.252878
v -86.713776 87.980392 22.384079
v -82.972420 88.605530 24.354345
v -91.894569 87.708466 19.880888
v -96.538734 88.424065 17.496487
v -100.073143 89.632561 15.645094
vt 0.001992 0.536389
vt 0.013180 0.341322
vt 0.111112 0.331740
vt 0.098668 0.529383
vt 0.047267 0.219062
vt 0.139328 0.206320
vt 0.264656 0.329055
vt 0.249106 0.530921
vt 0.027609 0.640658
vt 0.099615 0.671303
vt 0.081253 0.128032
vt 0.124398 0.052904
vt 0.271638 0.203636
vt 0.389304 0.326350
vt 0.370418 0.531789
vt 0.219062 0.675573
vt 0.231005 0.001349
vt 0.379560 0.205213
vt 0.496509 0.337625
vt 0.486752 0.523495
vt 0.328539 0.671535
vt 0.355996 0.004801
vt 0.470835 0.171008
vt 0.464324 0.657721
vt 0.427479 0.044204
vt 0.503491 0.140533
vt 0.600167 0.147539
vt 0.612611 0.345182
vt 0.514679 0.335598
vt 0.529108 0.036264
vt 0.601114 0.005618
vt 0.750605 0.146002
vt 0.766155 0.347867
vt 0.640827 0.470602
vt 0.548766 0.457862
vt 0.720561 0.001349
vt 0.871917 0.145133
vt 0.890802 0.350571
vt 0.773137 0.473286
vt 0.625897 0.624018
vt 0.582752 0.548890
vt 0.830038 0.005388
vt 0.988251 0.153427
vt 0.998008 0.339297
vt 0.881059 0.471707
vt 0.732504 0.675573
vt 0.965823 0.019200
vt 0.972333 0.505914
vt 0.857495 0.672120
vt 0.928978 0.632717
vn -0.521233 -0.038283 -0.852555
vn -0.461117 -0.028188 -0.886891
vn -0.460674 -0.007023 -0.887541
vn -0.511353 0.002877 -0.859366
vn -0.430525 -0.024128 -0.902256
vn -0.426676 -0.015146 -0.904278
vn -0.451310 -0.046734 -0.891143
vn -0.446466 -0.039735 -0.893918
vn -0.479123 -0.092430 -0.872867
vn -0.468773 -0.045210 -0.882161
vn -0.507574 0.008693 -0.861564
vn -0.459196 0.001224 -0.888334
vn -0.455739 0.001996 -0.890111
vn -0.499909 0.002283 -0.866075
vn -0.418388 -0.006206 -0.908247
vn -0.423658 0.013101 -0.905728
vn -0.446375 -0.011178 -0.894776
vn -0.451902 0.036495 -0.891321
vn -0.473051 -0.012100 -0.880952
vn -0.479623 0.031718 -0.876901
vn -0.450808 0.005309 -0.892605
vn -0.487967 0.013647 -0.872755
vn -0.431932 0.022421 -0.901627
vn -0.466206 0.080186 -0.881035
vn -0.485312 0.093024 -0.869378
vn 0.521234 -0.038282 -0.852555
vn 0.511354 0.002878 -0.859366
vn 0.460675 -0.007022 -0.887541
vn 0.461118 -0.028188 -0.886891
vn 0.426676 -0.015146 -0.904278
vn 0.430526 -0.024128 -0.902256
vn 0.446466 -0.039736 -0.893918
vn 0.451311 -0.046734 -0.891142
vn 0.468773 -0.045211 -0.882161
vn 0.479124 -0.092432 -0.872867
vn 0.507574 0.008694 -0.861564
vn 0.499909 0.002283 -0.866075
vn 0.455739 0.001996 -0.890111
vn 0.459196 0.001224 -0.888334
vn 0.423658 0.013101 -0.905728
vn 0.418388 -0.006205 -0.908247
vn 0.451902 0.036495 -0.891321
vn 0.446375 -0.011178 -0.894776
vn 0.479623 0.031719 -0.876901
vn 0.473051 -0.012100 -0.880952
vn 0.487967 0.013648 -0.872755
vn 0.450808 0.005309 -0.892605
vn 0.431932 0.022421 -0.901628
vn 0.466206 0.080185 -0.881035
vn 0.485312 0.093024 -0.869378
s 1
g rcfMirrors
usemtl phong3SG
f 10/9/1 11/1/2 1/4/3 12/10/4
f 11/1/2 13/2/5 2/3/6 1/4/3
f 13/2/5 14/5/7 3/6/8 2/3/6
f 14/5/7 15/11/9 16/12/10 3/6/8
f 18/16/11 4/8/12 5/15/13 17/21/14
f 4/8/12 6/7/15 7/14/16 5/15/13
f 6/7/15 8/13/17 9/18/18 7/14/16
f 8/13/17 19/17/19 20/22/20 9/18/18
f 17/21/14 5/15/13 21/20/21 22/24/22
f 5/15/13 7/14/16 23/19/23 21/20/21
f 7/14/16 9/18/18 24/23/24 23/19/23
f 9/18/18 20/22/20 25/25/25 24/23/24
f 12/10/4 1/4/3 4/8/12 18/16/11
f 1/4/3 2/3/6 6/7/15 4/8/12
f 2/3/6 3/6/8 8/13/17 6/7/15
f 3/6/8 16/12/10 19/17/19 8/13/17
s 2
f 35/30/26 37/31/27 26/27/28 36/26/29
f 36/26/29 26/27/28 27/28/30 38/29/31
f 38/29/31 27/28/30 28/34/32 39/35/33
f 39/35/33 28/34/32 41/40/34 40/41/35
f 43/36/36 42/42/37 30/37/38 29/32/39
f 29/32/39 30/37/38 32/38/40 31/33/41
f 31/33/41 32/38/40 34/45/42 33/39/43
f 33/39/43 34/45/42 45/49/44 44/46/45
f 42/42/37 47/47/46 46/43/47 30/37/38
f 30/37/38 46/43/47 48/44/48 32/38/40
f 32/38/40 48/44/48 49/48/49 34/45/42
f 34/45/42 49/48/49 50/50/50 45/49/44
f 37/31/27 43/36/36 29/32/39 26/27/28
f 26/27/28 29/32/39 31/33/41 27/28/30
f 27/28/30 31/33/41 33/39/43 28/34/32
f 28/34/32 33/39/43 44/46/45 41/40/34
