# This file uses centimeters as units for non-parametric coordinates.

mtllib rcfWindows.mtl
g default
v 77.850677 83.701416 35.623981
v 73.655037 93.869858 41.182102
v 70.267113 99.754639 32.992649
v 66.319511 100.114822 32.136028
v 78.014641 83.701416 4.084309
v 72.581749 97.261421 4.228466
v 65.138260 110.752571 4.291012
v 63.735680 114.734276 4.303711
v 78.014641 83.701416 -23.967413
v 71.943619 97.208214 -23.967413
v 65.710106 110.472771 -23.881807
v 59.930061 121.419449 -23.967413
v 79.275505 83.701416 -52.019138
v 71.964333 97.208229 -52.019138
v 65.567383 110.715027 -52.019138
v 59.343750 123.156021 -52.019138
v 79.496269 83.701416 -80.070854
v 71.655167 97.208229 -80.070854
v 64.492966 110.715027 -80.070854
v 59.343750 119.459160 -80.070854
v 78.014641 83.701416 -126.515137
v 68.256516 100.004906 -127.915215
v 64.535034 110.715019 -115.125046
v 62.043507 114.928833 -108.243019
v 72.236916 96.333115 37.754150
v 69.466049 102.908554 4.254645
v 69.334389 102.760506 -23.931581
v 69.286690 102.861916 -52.019138
v 68.657211 102.861916 -80.070854
v 66.259224 105.856552 -123.423660
v 75.632233 89.077965 38.562828
v 75.731438 89.409752 3.599647
v 75.399849 90.052750 -24.228922
v 75.409737 90.843124 -52.019138
v 75.350296 90.843124 -80.070854
v 72.455322 93.566483 -127.033936
v 36.283760 96.734055 -195.746826
v 36.464317 101.964745 -177.558334
v 36.824390 106.060699 -164.535706
v 37.009666 109.955185 -152.716354
v 37.154438 113.707321 -141.527771
v 36.714764 118.236351 -126.028633
v 18.141878 98.106117 -198.357574
v 18.232159 104.264328 -177.558334
v 18.412197 108.250237 -164.535706
v 18.504835 111.417534 -154.183792
v 18.521330 114.896545 -143.393204
v 18.357382 119.365051 -129.504135
v -0.000001 98.011429 -198.862808
v -0.000001 105.211876 -177.558334
v -0.000001 109.564537 -164.535706
v -0.000001 112.597893 -154.332840
v -0.000001 115.571709 -144.735641
v -0.000001 119.463333 -130.873245
v 58.585014 115.726097 -116.181702
v 57.668789 110.851570 -137.463181
v 57.349808 106.667534 -149.719162
v 56.736427 101.962868 -163.360657
v 55.793255 97.604187 -177.663040
v 55.950115 95.529419 -187.080627
v 58.226295 113.575996 -125.568733
v 36.904873 116.278061 -132.730255
v 18.426504 117.197929 -136.318588
v -0.000001 117.568748 -137.467880
v -57.349815 106.667534 -149.719162
v -56.736427 101.962868 -163.360657
v -36.824394 106.060699 -164.535706
v -37.009670 109.955185 -152.716354
v -55.793262 97.604187 -177.663040
v -36.464317 101.964745 -177.558334
v -36.283760 96.734055 -195.746826
v -55.950115 95.529419 -187.080627
v -18.141880 98.106117 -198.357574
v -18.232161 104.264328 -177.558334
v -18.412199 108.250237 -164.535706
v -18.504837 111.417534 -154.183792
v -36.904877 116.278061 -132.730255
v -58.226295 113.575996 -125.568733
v -57.668789 110.851570 -137.463181
v -37.154438 113.707321 -141.527771
v -18.521332 114.896545 -143.393204
v -18.426506 117.197929 -136.318588
v -18.357384 119.365051 -129.504135
v -36.714767 118.236351 -126.028633
v -58.585022 115.726097 -116.181702
v -77.850677 83.701416 35.623981
v -73.655037 93.869858 41.182102
v -70.267113 99.754639 32.992649
v -66.319511 100.114822 32.136028
v -78.014641 83.701416 4.084309
v -72.581749 97.261421 4.228466
v -65.138260 110.752571 4.291012
v -63.735680 114.734276 4.303711
v -78.014641 83.701416 -23.967413
v -71.943619 97.208214 -23.967413
v -65.710106 110.472771 -23.881807
v -59.930061 121.419449 -23.967413
v -79.275505 83.701416 -52.019138
v -71.964333 97.208229 -52.019138
v -65.567383 110.715027 -52.019138
v -59.343750 123.156021 -52.019138
v -79.496269 83.701416 -80.070854
v -71.655167 97.208229 -80.070854
v -64.492966 110.715027 -80.070854
v -59.343750 119.459160 -80.070854
v -78.014641 83.701416 -126.515137
v -68.256516 100.004906 -127.915215
v -64.535034 110.715019 -115.125046
v -62.043507 114.928833 -108.243019
v -72.236916 96.333115 37.754150
v -69.466049 102.908554 4.254645
v -69.334389 102.760506 -23.931581
v -69.286690 102.861916 -52.019138
v -68.657211 102.861916 -80.070854
v -66.259224 105.856552 -123.423660
v -75.632233 89.077965 38.562828
v -75.731438 89.409752 3.599647
v -75.399849 90.052750 -24.228922
v -75.409737 90.843124 -52.019138
v -75.350296 90.843124 -80.070854
v -72.455322 93.566483 -127.033936
v 0.000000 89.955330 72.327003
v 18.892143 89.442055 71.647598
v 46.990906 89.442055 68.929962
v 71.623428 88.276711 61.456451
v 0.000000 100.108307 54.325912
v 18.892143 99.595032 54.325912
v 46.813854 97.237396 53.798767
v 70.944023 93.259453 51.576149
v 0.000000 108.146072 37.910110
v 18.892143 107.632797 37.910110
v 45.991364 105.390099 37.398670
v 68.723991 101.245819 35.417130
v 0.000000 115.549278 21.494305
v 18.892143 115.036003 21.494305
v 44.866299 113.294632 20.528259
v 63.683548 109.815887 18.077457
v 0.000000 122.478935 4.229446
v 18.892143 122.290184 3.369933
v 42.387596 120.919289 1.297656
v 56.676422 119.901604 -3.527350
v 32.679573 89.442055 70.314110
v 32.592693 98.506737 54.067253
v 32.189117 106.748947 37.659157
v 31.637072 114.336533 21.020288
v 30.420830 121.947624 2.353116
v 60.147499 89.442055 64.938248
v 59.702137 95.177803 52.611633
v 58.133202 103.382225 36.340302
v 54.916874 111.583733 19.219250
v 50.019474 120.375725 -1.279453
v 8.640963 89.757568 72.016258
v 8.640963 99.910538 54.325912
v 8.640963 107.948303 37.910110
v 8.640963 115.351517 21.494305
v 8.640963 122.770187 3.836318
v -18.892143 89.442055 71.647598
v -46.990906 89.442055 68.929962
v -71.623428 88.369240 61.456451
v -18.892143 99.595032 54.325912
v -46.813854 97.027916 53.798767
v -70.944023 93.259453 51.576149
v -18.892143 107.632797 37.910110
v -45.991364 105.445854 37.398670
v -68.723991 101.245819 35.417130
v -18.892143 115.036003 21.494305
v -44.866299 113.047249 20.528259
v -63.683548 109.815887 18.077457
v -18.892143 122.290184 3.369933
v -42.387596 120.919289 1.297656
v -56.676422 119.901604 -3.527350
v -32.679573 89.442055 70.314110
v -32.592693 98.506737 54.067253
v -32.189117 106.748947 37.659157
v -31.637072 114.336533 21.020288
v -30.420830 121.947624 2.353116
v -60.147499 89.442055 64.938248
v -59.702137 95.177803 52.611633
v -58.133202 103.382225 36.340302
v -54.916874 111.583733 19.219250
v -50.019474 120.375725 -1.279453
v -8.640963 89.757568 72.016258
v -8.640963 99.910538 54.325912
v -8.640963 107.948303 37.910110
v -8.640963 115.351517 21.494305
v -8.640963 122.770187 3.836318
vt 0.001825 0.625183
vt 0.001825 0.504996
vt 0.023578 0.503150
vt 0.022313 0.636382
vt 0.001825 0.398101
vt 0.026028 0.397105
vt 0.053498 0.505546
vt 0.040574 0.646363
vt 0.001825 0.291206
vt 0.029040 0.291206
vt 0.053295 0.398101
vt 0.075017 0.505646
vt 0.049960 0.633301
vt 0.001825 0.184310
vt 0.029040 0.184310
vt 0.053295 0.291206
vt 0.074453 0.398238
vt 0.104908 0.505784
vt 0.062998 0.615156
vt 0.001825 0.007327
vt 0.039418 0.005350
vt 0.053295 0.184310
vt 0.074839 0.291206
vt 0.103842 0.398427
vt 0.120081 0.505833
vt 0.064371 0.611892
vt 0.063952 0.001992
vt 0.074839 0.184310
vt 0.104765 0.291206
vt 0.145556 0.398101
vt 0.086251 0.019108
vt 0.104765 0.184310
vt 0.152173 0.291206
vt 0.104765 0.050731
vt 0.138086 0.184310
vt 0.120822 0.076956
vt 0.727174 0.556221
vt 0.779157 0.558558
vt 0.783634 0.634436
vt 0.738595 0.633730
vt 0.833658 0.562152
vt 0.833259 0.635808
vt 0.783634 0.704598
vt 0.744187 0.704245
vt 0.695959 0.633178
vt 0.680470 0.555005
vt 0.902569 0.636496
vt 0.869545 0.561554
vt 0.833259 0.705284
vt 0.783634 0.774761
vt 0.744755 0.774761
vt 0.703068 0.704182
vt 0.662435 0.634129
vt 0.635145 0.552881
vt 0.912518 0.705628
vt 0.833259 0.774761
vt 0.744187 0.845276
vt 0.783634 0.844923
vt 0.708183 0.774761
vt 0.676108 0.704544
vt 0.636897 0.634854
vt 0.599374 0.551514
vt 0.914443 0.774761
vt 0.833259 0.844237
vt 0.703068 0.845339
vt 0.738595 0.915792
vt 0.783634 0.915086
vt 0.680488 0.774761
vt 0.650141 0.704807
vt 0.912518 0.843893
vt 0.833259 0.913714
vt 0.676108 0.844978
vt 0.695959 0.916344
vt 0.727174 0.993301
vt 0.779157 0.990964
vt 0.655358 0.774761
vt 0.902569 0.913026
vt 0.833658 0.987369
vt 0.662435 0.915392
vt 0.650141 0.844714
vt 0.680470 0.994517
vt 0.869545 0.987967
vt 0.635145 0.996641
vt 0.636897 0.914668
vt 0.599374 0.998008
vt 0.159151 0.023172
vt 0.179639 0.011973
vt 0.180903 0.145206
vt 0.159151 0.143359
vt 0.197899 0.001992
vt 0.210823 0.142809
vt 0.183354 0.251251
vt 0.159151 0.250254
vt 0.207286 0.015055
vt 0.232343 0.142710
vt 0.210620 0.250254
vt 0.186365 0.357150
vt 0.159151 0.357150
vt 0.220324 0.033199
vt 0.262233 0.142571
vt 0.231778 0.250118
vt 0.210621 0.357150
vt 0.186365 0.464045
vt 0.159151 0.464045
vt 0.221697 0.036463
vt 0.277406 0.142523
vt 0.261167 0.249928
vt 0.232165 0.357150
vt 0.210621 0.464045
vt 0.196743 0.643005
vt 0.159151 0.641028
vt 0.302881 0.250254
vt 0.262090 0.357150
vt 0.232165 0.464045
vt 0.221278 0.646363
vt 0.309499 0.357150
vt 0.262090 0.464045
vt 0.243576 0.629248
vt 0.295411 0.464045
vt 0.262090 0.597624
vt 0.278148 0.571399
vt 0.316298 0.274924
vt 0.317482 0.241996
vt 0.384894 0.241996
vt 0.384894 0.274924
vt 0.318887 0.202933
vt 0.384894 0.202933
vt 0.447449 0.241996
vt 0.447449 0.274924
vt 0.384894 0.307852
vt 0.317482 0.307852
vt 0.323969 0.150394
vt 0.385880 0.150725
vt 0.447449 0.202933
vt 0.510004 0.241996
vt 0.510004 0.274924
vt 0.447449 0.307852
vt 0.384894 0.346916
vt 0.318887 0.346916
vt 0.329243 0.095858
vt 0.386903 0.096533
vt 0.448405 0.152263
vt 0.510004 0.202933
vt 0.577292 0.241996
vt 0.575794 0.274924
vt 0.510004 0.307852
vt 0.447449 0.346916
vt 0.385880 0.399124
vt 0.323969 0.399455
vt 0.344454 0.045723
vt 0.391427 0.047420
vt 0.449398 0.099667
vt 0.511810 0.154366
vt 0.579070 0.202933
vt 0.577292 0.307852
vt 0.510004 0.346916
vt 0.448405 0.397586
vt 0.386903 0.453316
vt 0.329243 0.453990
vt 0.357722 0.001992
vt 0.395372 0.004581
vt 0.453431 0.053399
vt 0.513685 0.103954
vt 0.582944 0.159001
vt 0.579070 0.346916
vt 0.511810 0.395482
vt 0.449398 0.450181
vt 0.391427 0.502428
vt 0.344454 0.504126
vt 0.456949 0.013041
vt 0.518673 0.065655
vt 0.586966 0.113400
vt 0.582944 0.390848
vt 0.513685 0.445894
vt 0.453431 0.496450
vt 0.395372 0.545267
vt 0.357722 0.547856
vt 0.523024 0.032248
vt 0.596787 0.084317
vt 0.586966 0.436449
vt 0.518673 0.484193
vt 0.456949 0.536808
vt 0.605353 0.058950
vt 0.596787 0.465531
vt 0.523024 0.517600
vt 0.605353 0.490898
vn 0.926925 0.375205 0.005540
vn 0.926749 0.375672 0.002504
vn 0.923736 0.383029 -0.000361
vn 0.927185 0.374550 0.006428
vn 0.914877 0.403594 0.010590
vn 0.905139 0.425115 0.000484
vn 0.880673 0.473619 0.010013
vn 0.868302 0.495455 0.023992
vn 0.828007 0.555665 0.075110
vn 0.854520 0.516902 0.051062
vn 0.857751 0.511397 0.052312
vn 0.581025 0.768205 0.268833
vn 0.913587 0.406420 0.013453
vn 0.908053 0.418821 0.005296
vn 0.901070 0.433650 -0.004614
vn 0.897452 0.441108 -0.001969
vn 0.895649 0.444759 0.001706
vn 0.893545 0.448968 0.002216
vn 0.886242 0.463013 0.013913
vn 0.884115 0.467210 0.007453
vn 0.889830 0.456282 -0.002990
vn 0.899029 0.437746 -0.011163
vn 0.891079 0.453500 -0.017753
vn 0.885492 0.464220 -0.020092
vn 0.869864 0.493012 -0.016593
vn 0.865465 0.500662 -0.017578
vn 0.880518 0.473511 -0.021787
vn 0.902441 0.430241 -0.022197
vn 0.886126 0.462844 -0.023604
vn 0.873859 0.485224 -0.030467
vn 0.868571 0.494868 -0.026269
vn 0.860482 0.508807 -0.026176
vn 0.876599 0.480382 -0.028409
vn 0.910536 0.412529 -0.027290
vn 0.898148 0.439602 -0.008980
vn 0.861630 0.507536 0.000998
vn 0.198544 0.926904 -0.318479
vn 0.205899 0.928610 -0.308690
vn 0.163462 0.938323 -0.304681
vn 0.155256 0.936631 -0.314035
vn 0.199663 0.940654 -0.274416
vn 0.156275 0.946765 -0.281451
vn 0.142139 0.952385 -0.269740
vn 0.190602 0.948960 -0.251289
vn 0.067507 0.953991 -0.292136
vn 0.076512 0.952330 -0.295318
vn 0.087036 0.950366 -0.298711
vn 0.082654 0.949922 -0.301357
vn 0.026541 0.952822 -0.302368
vn 0.039062 0.952083 -0.303335
vn 0.061835 0.952730 -0.297458
vn 0.062754 0.953464 -0.294903
vn 0.159048 0.951942 -0.261745
vn 0.192215 0.950026 -0.245976
vn 0.193432 0.940233 -0.280262
vn 0.152292 0.943556 -0.294125
vn 0.076298 0.951078 -0.299382
vn 0.074524 0.954537 -0.288626
vn 0.054556 0.953794 -0.295467
vn 0.046412 0.956957 -0.286493
vn 0.067973 0.954851 -0.289204
vn 0.032027 0.956612 -0.289599
vn 0.032027 0.956612 -0.289599
vn 0.072978 0.954507 -0.289120
vn 0.161361 0.950444 -0.265742
vn 0.174816 0.949693 -0.259851
vn 0.210314 0.946707 -0.243954
vn 0.210314 0.946707 -0.243954
vn -0.198544 0.926904 -0.318479
vn -0.155256 0.936631 -0.314035
vn -0.163462 0.938323 -0.304681
vn -0.205900 0.928610 -0.308689
vn -0.156275 0.946765 -0.281451
vn -0.199663 0.940655 -0.274416
vn -0.142139 0.952385 -0.269740
vn -0.190601 0.948960 -0.251289
vn -0.067507 0.953991 -0.292136
vn -0.076512 0.952330 -0.295318
vn -0.087036 0.950366 -0.298711
vn -0.082654 0.949922 -0.301357
vn -0.026541 0.952822 -0.302368
vn -0.039062 0.952083 -0.303335
vn -0.061835 0.952730 -0.297458
vn -0.062754 0.953464 -0.294903
vn -0.159048 0.951942 -0.261746
vn -0.152292 0.943556 -0.294125
vn -0.193432 0.940232 -0.280263
vn -0.192214 0.950026 -0.245977
vn -0.076298 0.951078 -0.299382
vn -0.074524 0.954537 -0.288627
vn -0.054556 0.953794 -0.295467
vn -0.046412 0.956958 -0.286493
vn -0.067973 0.954851 -0.289204
vn -0.072978 0.954507 -0.289119
vn -0.032027 0.956612 -0.289598
vn -0.032027 0.956612 -0.289598
vn -0.161361 0.950444 -0.265742
vn -0.174816 0.949693 -0.259850
vn -0.210315 0.946707 -0.243954
vn -0.210315 0.946707 -0.243954
vn -0.926926 0.375204 0.005540
vn -0.927185 0.374550 0.006428
vn -0.923736 0.383029 -0.000361
vn -0.926749 0.375672 0.002504
vn -0.914877 0.403594 0.010590
vn -0.868302 0.495456 0.023992
vn -0.880673 0.473619 0.010013
vn -0.905139 0.425115 0.000484
vn -0.828006 0.555665 0.075110
vn -0.581025 0.768205 0.268832
vn -0.857751 0.511397 0.052312
vn -0.854520 0.516902 0.051062
vn -0.908053 0.418821 0.005296
vn -0.913588 0.406420 0.013453
vn -0.897452 0.441108 -0.001969
vn -0.901070 0.433650 -0.004614
vn -0.893545 0.448968 0.002216
vn -0.895649 0.444759 0.001706
vn -0.884115 0.467210 0.007453
vn -0.886242 0.463014 0.013913
vn -0.899029 0.437746 -0.011163
vn -0.889830 0.456282 -0.002990
vn -0.885492 0.464220 -0.020092
vn -0.891079 0.453500 -0.017753
vn -0.865465 0.500662 -0.017578
vn -0.869864 0.493012 -0.016593
vn -0.902441 0.430241 -0.022197
vn -0.880518 0.473511 -0.021787
vn -0.873859 0.485224 -0.030467
vn -0.886126 0.462844 -0.023604
vn -0.860482 0.508807 -0.026176
vn -0.868571 0.494868 -0.026269
vn -0.910536 0.412529 -0.027291
vn -0.876599 0.480382 -0.028409
vn -0.861630 0.507536 0.000998
vn -0.898148 0.439603 -0.008980
vn 0.028772 0.868817 0.494297
vn 0.032427 0.866523 0.498083
vn 0.028655 0.881853 0.470652
vn 0.024885 0.883055 0.468610
vn 0.050584 0.865505 0.498339
vn 0.064605 0.872293 0.484697
vn 0.073860 0.882865 0.463783
vn 0.052424 0.880490 0.471156
vn 0.101577 0.883371 0.457535
vn 0.172936 0.887053 0.428054
vn 0.184700 0.885926 0.425466
vn 0.121536 0.886761 0.445964
vn 0.024577 0.904654 0.425437
vn 0.020708 0.904764 0.425410
vn 0.081448 0.900181 0.427831
vn 0.051828 0.902992 0.426519
vn 0.199172 0.890687 0.408666
vn 0.136923 0.895715 0.423021
vn 0.025492 0.918402 0.394826
vn 0.012001 0.918541 0.395143
vn 0.080664 0.917404 0.389695
vn 0.052146 0.918046 0.393030
vn 0.203698 0.906177 0.370608
vn 0.139763 0.913413 0.382287
vn 0.026574 0.924792 0.379543
vn 0.003641 0.924967 0.380030
vn 0.081154 0.926510 0.367415
vn 0.054707 0.925353 0.375140
vn 0.201303 0.915985 0.347057
vn 0.140787 0.924265 0.354843
vn 0.203202 0.885785 0.417245
vn 0.202529 0.885616 0.417931
vn 0.210350 0.890369 0.403728
vn 0.216661 0.903702 0.369297
vn 0.209643 0.912965 0.350066
vn -0.028772 0.868817 0.494297
vn -0.024885 0.883055 0.468610
vn -0.028655 0.881853 0.470652
vn -0.032427 0.866523 0.498083
vn -0.050584 0.865505 0.498339
vn -0.052424 0.880491 0.471156
vn -0.076640 0.882535 0.463960
vn -0.067516 0.873289 0.482503
vn -0.102282 0.885820 0.452616
vn -0.121466 0.886490 0.446521
vn -0.180543 0.886701 0.425636
vn -0.166506 0.890192 0.424069
vn -0.020708 0.904764 0.425410
vn -0.024577 0.904654 0.425437
vn -0.051828 0.902992 0.426519
vn -0.084322 0.900135 0.427373
vn -0.136750 0.895720 0.423067
vn -0.195917 0.891043 0.409462
vn -0.012001 0.918541 0.395143
vn -0.025492 0.918402 0.394826
vn -0.052146 0.918046 0.393030
vn -0.084764 0.917371 0.388904
vn -0.139611 0.913710 0.381631
vn -0.198942 0.907196 0.370698
vn -0.003641 0.924967 0.380030
vn -0.026574 0.924792 0.379543
vn -0.054707 0.925353 0.375140
vn -0.085907 0.925228 0.369558
vn -0.140658 0.922152 0.360350
vn -0.195743 0.915756 0.350822
vn -0.200832 0.886525 0.416822
vn -0.199364 0.887836 0.414730
vn -0.210350 0.890369 0.403728
vn -0.216661 0.903703 0.369296
vn -0.209643 0.912965 0.350065
s 1
g rcfWindows
usemtl phong5SG
f 1/1/1 5/2/2 32/3/3 31/4/4
f 2/8/5 6/7/6 26/12/7 25/13/8
f 3/19/9 7/18/10 8/25/11 4/26/12
f 5/2/2 9/5/13 33/6/14 32/3/3
f 6/7/6 10/11/15 27/17/16 26/12/7
f 7/18/10 11/24/17 12/30/18 8/25/11
f 9/5/13 13/9/19 34/10/20 33/6/14
f 10/11/15 14/16/21 28/23/22 27/17/16
f 11/24/17 15/29/23 16/33/24 12/30/18
f 13/9/19 17/14/25 35/15/26 34/10/20
f 14/16/21 18/22/27 29/28/28 28/23/22
f 15/29/23 19/32/29 20/35/30 16/33/24
f 17/14/25 21/20/31 36/21/32 35/15/26
f 18/22/27 22/27/33 30/31/34 29/28/28
f 19/32/29 23/34/35 24/36/36 20/35/30
f 25/13/8 26/12/7 7/18/10 3/19/9
f 27/17/16 11/24/17 7/18/10 26/12/7
f 28/23/22 15/29/23 11/24/17 27/17/16
f 29/28/28 19/32/29 15/29/23 28/23/22
f 30/31/34 23/34/35 19/32/29 29/28/28
f 31/4/4 32/3/3 6/7/6 2/8/5
f 33/6/14 10/11/15 6/7/6 32/3/3
f 34/10/20 14/16/21 10/11/15 33/6/14
f 35/15/26 18/22/27 14/16/21 34/10/20
f 36/21/32 22/27/33 18/22/27 35/15/26
s 2
f 57/37/37 58/38/38 39/39/39 40/40/40
f 58/38/38 59/41/41 38/42/42 39/39/39
f 37/47/43 38/42/42 59/41/41 60/48/44
f 43/55/45 44/49/46 38/42/42 37/47/43
f 39/39/39 38/42/42 44/49/46 45/43/47
f 40/40/40 39/39/39 45/43/47 46/44/48
f 49/63/49 50/56/50 44/49/46 43/55/45
f 45/43/47 44/49/46 50/56/50 51/50/51
f 46/44/48 45/43/47 51/50/51 52/51/52
f 62/53/53 61/54/54 56/46/55 41/45/56
f 41/45/56 56/46/55 57/37/37 40/40/40
f 41/45/56 40/40/40 46/44/48 47/52/57
f 63/60/58 62/53/53 41/45/56 47/52/57
f 47/52/57 46/44/48 52/51/52 53/59/59
f 64/68/60 63/60/58 47/52/57 53/59/59
s 3
f 63/60/61 64/68/62 54/76/63 48/69/64
f 62/53/65 63/60/61 48/69/64 42/61/66
f 61/54/67 62/53/65 42/61/66 55/62/68
s 4
f 65/74/69 68/66/70 67/67/71 66/75/72
f 66/75/72 67/67/71 70/71/73 69/78/74
f 71/77/75 72/82/76 69/78/74 70/71/73
f 73/70/77 71/77/75 70/71/73 74/64/78
f 67/67/71 75/58/79 74/64/78 70/71/73
f 68/66/70 76/57/80 75/58/79 67/67/71
f 49/63/81 73/70/77 74/64/78 50/56/82
f 75/58/79 51/50/83 50/56/82 74/64/78
f 76/57/80 52/51/84 51/50/83 75/58/79
f 77/79/85 80/73/86 79/81/87 78/83/88
f 80/73/86 68/66/70 65/74/69 79/81/87
f 80/73/86 81/65/89 76/57/80 68/66/70
f 82/72/90 81/65/89 80/73/86 77/79/85
f 81/65/89 53/59/91 52/51/84 76/57/80
f 64/68/92 53/59/91 81/65/89 82/72/90
s 6
f 82/72/93 83/80/94 54/76/95 64/68/96
f 77/79/97 84/84/98 83/80/94 82/72/93
f 78/83/99 85/85/100 84/84/98 77/79/97
s 7
f 86/86/101 116/87/102 117/88/103 90/89/104
f 87/90/105 110/94/106 111/95/107 91/91/108
f 88/99/109 89/105/110 93/106/111 92/100/112
f 90/89/104 117/88/103 118/92/113 94/93/114
f 91/91/108 111/95/107 112/101/115 95/96/116
f 92/100/112 93/106/111 97/112/117 96/107/118
f 94/93/114 118/92/113 119/97/119 98/98/120
f 95/96/116 112/101/115 113/108/121 99/102/122
f 96/107/118 97/112/117 101/116/123 100/113/124
f 98/98/120 119/97/119 120/103/125 102/104/126
f 99/102/122 113/108/121 114/114/127 103/109/128
f 100/113/124 101/116/123 105/119/129 104/117/130
f 102/104/126 120/103/125 121/110/131 106/111/132
f 103/109/128 114/114/127 115/118/133 107/115/134
f 104/117/130 105/119/129 109/121/135 108/120/136
f 110/94/106 88/99/109 92/100/112 111/95/107
f 112/101/115 111/95/107 92/100/112 96/107/118
f 113/108/121 112/101/115 96/107/118 100/113/124
f 114/114/127 113/108/121 100/113/124 104/117/130
f 115/118/133 114/114/127 104/117/130 108/120/136
f 116/87/102 87/90/105 91/91/108 117/88/103
f 118/92/113 117/88/103 91/91/108 95/96/116
f 119/97/119 118/92/113 95/96/116 99/102/122
f 120/103/125 119/97/119 99/102/122 103/109/128
f 121/110/131 120/103/125 103/109/128 107/115/134
s 10
f 122/122/137 152/123/138 153/124/139 126/125/140
f 123/126/141 142/132/142 143/133/143 127/127/144
f 124/140/145 147/150/146 148/151/147 128/141/148
f 126/125/140 153/124/139 154/128/149 130/129/150
f 127/127/144 143/133/143 144/142/151 131/134/152
f 128/141/148 148/151/147 149/162/153 132/152/154
f 130/129/150 154/128/149 155/135/155 134/136/156
f 131/134/152 144/142/151 145/153/157 135/143/158
f 132/152/154 149/162/153 150/171/159 136/163/160
f 134/136/156 155/135/155 156/144/161 138/145/162
f 135/143/158 145/153/157 146/164/163 139/154/164
f 136/163/160 150/171/159 151/179/165 140/172/166
f 142/132/142 124/140/145 128/141/148 143/133/143
f 144/142/151 143/133/143 128/141/148 132/152/154
f 145/153/157 144/142/151 132/152/154 136/163/160
f 146/164/163 145/153/157 136/163/160 140/172/166
f 147/150/146 125/160/167 129/161/168 148/151/147
f 149/162/153 148/151/147 129/161/168 133/170/169
f 150/171/159 149/162/153 133/170/169 137/178/170
f 151/179/165 150/171/159 137/178/170 141/183/171
f 152/123/138 123/126/141 127/127/144 153/124/139
f 154/128/149 153/124/139 127/127/144 131/134/152
f 155/135/155 154/128/149 131/134/152 135/143/158
f 156/144/161 155/135/155 135/143/158 139/154/164
s 13
f 122/122/172 126/125/173 183/130/174 182/131/175
f 157/139/176 160/138/177 173/148/178 172/149/179
f 158/159/180 161/158/181 178/168/182 177/169/183
f 126/125/173 130/129/184 184/137/185 183/130/174
f 160/138/177 163/147/186 174/157/187 173/148/178
f 161/158/181 164/167/188 179/175/189 178/168/182
f 130/129/184 134/136/190 185/146/191 184/137/185
f 163/147/186 166/156/192 175/166/193 174/157/187
f 164/167/188 167/174/194 180/181/195 179/175/189
f 134/136/190 138/145/196 186/155/197 185/146/191
f 166/156/192 169/165/198 176/173/199 175/166/193
f 167/174/194 170/180/200 181/184/201 180/181/195
f 172/149/179 173/148/178 161/158/181 158/159/180
f 174/157/187 164/167/188 161/158/181 173/148/178
f 175/166/193 167/174/194 164/167/188 174/157/187
f 176/173/199 170/180/200 167/174/194 175/166/193
f 177/169/183 178/168/182 162/176/202 159/177/203
f 179/175/189 165/182/204 162/176/202 178/168/182
f 180/181/195 168/185/205 165/182/204 179/175/189
f 181/184/201 171/186/206 168/185/205 180/181/195
f 182/131/175 183/130/174 160/138/177 157/139/176
f 184/137/185 163/147/186 160/138/177 183/130/174
f 185/146/191 166/156/192 163/147/186 184/137/185
f 186/155/197 169/165/198 166/156/192 185/146/191
