# This file uses centimeters as units for non-parametric coordinates.

mtllib tailPipeBacking.mtl
g default
v -56.826225 35.167564 -204.350067
v -57.097198 36.776825 -204.284622
v -57.815720 38.227936 -204.033737
v -58.911770 39.377865 -203.621780
v -60.260307 40.118286 -203.077347
v -72.974991 40.146835 -196.526733
v -74.207741 39.412762 -195.727829
v -75.198669 38.247417 -195.094971
v -75.826187 36.803761 -194.678513
v -76.055466 35.193443 -194.505325
v -75.781227 33.576504 -194.498047
v -74.825989 32.311935 -194.319977
v -73.608231 31.334276 -194.433731
v -72.137924 30.721079 -194.810532
v -59.317799 30.804878 -201.095444
v -58.174854 31.432903 -201.987000
v -57.313007 32.404118 -202.933838
v -56.883961 33.599319 -203.845016
v -59.765701 35.230854 -202.037292
v -72.539063 35.238041 -195.632950
v -59.486080 32.467766 -201.449310
v -72.287621 32.406769 -195.117432
v -59.611717 33.709251 -201.713501
v -72.402359 33.698772 -195.352692
v -59.925167 36.806580 -202.372604
v -72.679543 36.819904 -195.920975
v -60.069580 38.233612 -202.676285
v -72.806274 38.247021 -196.180832
v -64.498535 40.127800 -200.893799
v -64.315140 38.238079 -200.511124
v -64.176620 36.811020 -200.222046
v -64.023483 35.233246 -199.902512
v -63.875259 33.705757 -199.593231
v -63.753258 32.447433 -199.338684
v -63.591171 30.776943 -199.000473
v -68.736763 40.137318 -198.710266
v -68.560715 38.242550 -198.345978
v -68.428078 36.815464 -198.071518
v -68.281273 35.235645 -197.767731
v -68.138809 33.702263 -197.472961
v -68.020439 32.427101 -197.228058
v -67.864548 30.749012 -196.905502
v 56.826225 35.167564 -204.350067
v 57.097198 36.776825 -204.284622
v 57.815720 38.227936 -204.033737
v 58.911770 39.377865 -203.621780
v 60.260307 40.118286 -203.077347
v 72.974991 40.146835 -196.526733
v 74.207741 39.412762 -195.727829
v 75.198669 38.247417 -195.094971
v 75.826187 36.803761 -194.678513
v 76.055466 35.193443 -194.505325
v 75.781227 33.576504 -194.498047
v 74.825989 32.311935 -194.319977
v 73.608231 31.334276 -194.433731
v 72.137924 30.721079 -194.810532
v 59.317799 30.804878 -201.095444
v 58.174854 31.432903 -201.987000
v 57.313007 32.404118 -202.933838
v 56.883961 33.599319 -203.845016
v 59.765701 35.230854 -202.037292
v 72.539063 35.238041 -195.632950
v 59.486080 32.467766 -201.449310
v 72.287621 32.406769 -195.117432
v 59.611717 33.709251 -201.713501
v 72.402359 33.698772 -195.352692
v 59.925167 36.806580 -202.372604
v 72.679543 36.819904 -195.920975
v 60.069580 38.233612 -202.676285
v 72.806274 38.247021 -196.180832
v 64.498535 40.127800 -200.893799
v 64.315140 38.238079 -200.511124
v 64.176620 36.811020 -200.222046
v 64.023483 35.233246 -199.902512
v 63.875259 33.705757 -199.593231
v 63.753258 32.447433 -199.338684
v 63.591171 30.776943 -199.000473
v 68.736763 40.137318 -198.710266
v 68.560715 38.242550 -198.345978
v 68.428078 36.815464 -198.071518
v 68.281273 35.235645 -197.767731
v 68.138809 33.702263 -197.472961
v 68.020439 32.427101 -197.228058
v 67.864548 30.749012 -196.905502
vt 0.402880 0.802843
vt 0.490195 0.795091
vt 0.458432 0.871248
vt 0.407792 0.934323
vt 0.488746 0.573743
vt 0.401828 0.581817
vt 0.335959 0.808787
vt 0.342291 0.983802
vt 0.335777 0.587948
vt 0.487300 0.352396
vt 0.400774 0.360790
vt 0.256229 0.815869
vt 0.258540 0.998007
vt 0.256353 0.595327
vt 0.335596 0.367110
vt 0.485853 0.131048
vt 0.399720 0.139764
vt 0.175130 0.986131
vt 0.174294 0.823144
vt 0.174523 0.602931
vt 0.256477 0.374787
vt 0.335416 0.146271
vt 0.453324 0.071846
vt 0.403019 0.027206
vt 0.100352 0.953628
vt 0.100372 0.829709
vt 0.100605 0.609802
vt 0.174754 0.382720
vt 0.256601 0.154247
vt 0.341110 0.004982
vt 0.039991 0.902301
vt 0.001969 0.838448
vt 0.002461 0.618921
vt 0.100836 0.389894
vt 0.174983 0.162507
vt 0.259879 0.001991
vt 0.002955 0.399393
vt 0.101067 0.169987
vt 0.176526 0.016027
vt 0.003447 0.179865
vt 0.101362 0.053245
vt 0.041800 0.110016
vt 0.899016 0.197153
vt 0.903929 0.065675
vt 0.954569 0.128750
vt 0.986332 0.204907
vt 0.832096 0.191211
vt 0.838428 0.016196
vt 0.984883 0.426255
vt 0.897965 0.418181
vt 0.752366 0.184130
vt 0.754677 0.001991
vt 0.831914 0.412050
vt 0.983437 0.647603
vt 0.896911 0.639208
vt 0.671267 0.013867
vt 0.670431 0.176854
vt 0.752490 0.404671
vt 0.831733 0.632889
vt 0.981990 0.868951
vt 0.895857 0.860234
vt 0.670660 0.397067
vt 0.596509 0.170289
vt 0.596489 0.046372
vt 0.752614 0.625211
vt 0.831553 0.853727
vt 0.949461 0.928153
vt 0.899155 0.972792
vt 0.670891 0.617279
vt 0.596742 0.390196
vt 0.536128 0.097697
vt 0.498106 0.161550
vt 0.752738 0.845751
vt 0.837247 0.995017
vt 0.671120 0.837490
vt 0.596973 0.610105
vt 0.498598 0.381078
vt 0.756016 0.998007
vt 0.672663 0.983971
vt 0.597204 0.830010
vt 0.499092 0.600604
vt 0.597499 0.946753
vt 0.499584 0.820133
vt 0.537937 0.889982
vn -0.533510 -0.257369 -0.805685
vn -0.449259 -0.230604 -0.863127
vn -0.472103 -0.242752 -0.847461
vn -0.533510 -0.257369 -0.805685
vn -0.382179 -0.216822 -0.898291
vn -0.406625 -0.207464 -0.889728
vn -0.300407 -0.221519 -0.927731
vn -0.300407 -0.221519 -0.927731
vn -0.573756 -0.296778 -0.763366
vn -0.502356 -0.237652 -0.831360
vn -0.573756 -0.296778 -0.763366
vn -0.365750 -0.194170 -0.910233
vn -0.251224 -0.256056 -0.933446
vn -0.251224 -0.256056 -0.933446
vn -0.605670 -0.223705 -0.763623
vn -0.507910 -0.208706 -0.835745
vn -0.605670 -0.223705 -0.763623
vn -0.381263 -0.170176 -0.908669
vn -0.271482 -0.122317 -0.954639
vn -0.271482 -0.122317 -0.954639
vn -0.492107 -0.198032 -0.847711
vn -0.586084 -0.146727 -0.796854
vn -0.586084 -0.146727 -0.796854
vn -0.331451 -0.125877 -0.935038
vn -0.406781 -0.176249 -0.896363
vn -0.331451 -0.125877 -0.935038
vn -0.466641 -0.212687 -0.858493
vn -0.533556 -0.175151 -0.827429
vn -0.533556 -0.175151 -0.827429
vn -0.382873 -0.148032 -0.911863
vn -0.382873 -0.148032 -0.911863
vn -0.431827 -0.189077 -0.881916
vn -0.453161 -0.220626 -0.863695
vn -0.489805 -0.204653 -0.847472
vn -0.489805 -0.204653 -0.847472
vn -0.427539 -0.168892 -0.888080
vn -0.443402 -0.197343 -0.874329
vn -0.427539 -0.168892 -0.888080
vn -0.430048 -0.219024 -0.875835
vn -0.431337 -0.218975 -0.875213
vn -0.434598 -0.218965 -0.873601
vn -0.437464 -0.219066 -0.872144
vn -0.440439 -0.219095 -0.870638
vn -0.443928 -0.219057 -0.868874
vn -0.445363 -0.219038 -0.868144
vn -0.444937 -0.208804 -0.870880
vn -0.446371 -0.208782 -0.870151
vn -0.441443 -0.208840 -0.872648
vn -0.438464 -0.208809 -0.874156
vn -0.435602 -0.208705 -0.875610
vn -0.432375 -0.208709 -0.877207
vn -0.431086 -0.208757 -0.877830
vn 0.533512 -0.257369 -0.805684
vn 0.533512 -0.257369 -0.805684
vn 0.472103 -0.242752 -0.847461
vn 0.449257 -0.230604 -0.863128
vn 0.382179 -0.216822 -0.898292
vn 0.300401 -0.221519 -0.927733
vn 0.300401 -0.221519 -0.927733
vn 0.406625 -0.207463 -0.889728
vn 0.573760 -0.296777 -0.763363
vn 0.573760 -0.296777 -0.763363
vn 0.502357 -0.237651 -0.831360
vn 0.365750 -0.194171 -0.910233
vn 0.251225 -0.256056 -0.933446
vn 0.251225 -0.256056 -0.933446
vn 0.605671 -0.223705 -0.763622
vn 0.605671 -0.223705 -0.763622
vn 0.507910 -0.208706 -0.835745
vn 0.381263 -0.170177 -0.908668
vn 0.271482 -0.122317 -0.954639
vn 0.271483 -0.122317 -0.954639
vn 0.586086 -0.146727 -0.796853
vn 0.586086 -0.146727 -0.796853
vn 0.492108 -0.198032 -0.847710
vn 0.331453 -0.125877 -0.935037
vn 0.331453 -0.125877 -0.935037
vn 0.406781 -0.176249 -0.896362
vn 0.533559 -0.175150 -0.827428
vn 0.533559 -0.175150 -0.827428
vn 0.466641 -0.212687 -0.858493
vn 0.431826 -0.189076 -0.881916
vn 0.382871 -0.148032 -0.911864
vn 0.382871 -0.148032 -0.911864
vn 0.489805 -0.204653 -0.847472
vn 0.489805 -0.204653 -0.847472
vn 0.453161 -0.220626 -0.863695
vn 0.427539 -0.168892 -0.888080
vn 0.427539 -0.168892 -0.888080
vn 0.443402 -0.197343 -0.874329
vn 0.431336 -0.218975 -0.875214
vn 0.430047 -0.219025 -0.875835
vn 0.434597 -0.218965 -0.873601
vn 0.437463 -0.219066 -0.872145
vn 0.440438 -0.219095 -0.870638
vn 0.443928 -0.219057 -0.868874
vn 0.445363 -0.219038 -0.868144
vn 0.446370 -0.208782 -0.870152
vn 0.444937 -0.208804 -0.870880
vn 0.441442 -0.208840 -0.872648
vn 0.438464 -0.208810 -0.874156
vn 0.435602 -0.208706 -0.875610
vn 0.432376 -0.208709 -0.877207
vn 0.431087 -0.208757 -0.877829
s 1
g polySurface76
usemtl phong8SG
f 16/23/1 15/16/2 21/17/3 17/24/4
f 22/1/5 14/2/6 13/3/7 12/4/8
f 17/24/9 21/17/3 23/22/10 18/30/11
f 24/7/12 22/1/5 12/4/13 11/8/14
f 18/30/15 23/22/10 19/29/16 1/36/17
f 20/12/18 24/7/12 11/8/19 10/13/20
f 19/29/16 25/35/21 2/39/22 1/36/23
f 9/18/24 26/19/25 20/12/18 10/13/26
f 25/35/21 27/38/27 3/41/28 2/39/29
f 26/19/25 9/18/30 8/25/31 28/26/32
f 27/38/27 5/40/33 4/42/34 3/41/35
f 7/31/36 6/32/37 28/26/32 8/25/38
f 15/16/2 35/10/39 34/11/40 21/17/3
f 21/17/3 34/11/40 33/15/41 23/22/10
f 23/22/10 33/15/41 32/21/42 19/29/16
f 19/29/16 32/21/42 31/28/43 25/35/21
f 25/35/21 31/28/43 30/34/44 27/38/27
f 27/38/27 30/34/44 29/37/45 5/40/33
f 30/34/44 37/27/46 36/33/47 29/37/45
f 31/28/43 38/20/48 37/27/46 30/34/44
f 32/21/42 39/14/49 38/20/48 31/28/43
f 33/15/41 40/9/50 39/14/49 32/21/42
f 34/11/40 41/6/51 40/9/50 33/15/41
f 35/10/39 42/5/52 41/6/51 34/11/40
f 37/27/46 28/26/32 6/32/37 36/33/47
f 38/20/48 26/19/25 28/26/32 37/27/46
f 39/14/49 20/12/18 26/19/25 38/20/48
f 40/9/50 24/7/12 20/12/18 39/14/49
f 41/6/51 22/1/5 24/7/12 40/9/50
f 42/5/52 14/2/6 22/1/5 41/6/51
s 13
f 58/67/53 59/68/54 63/61/55 57/60/56
f 64/43/57 54/44/58 55/45/59 56/46/60
f 59/68/61 60/74/62 65/66/63 63/61/55
f 66/47/64 53/48/65 54/44/66 64/43/57
f 60/74/67 43/78/68 61/73/69 65/66/63
f 62/51/70 52/52/71 53/48/72 66/47/64
f 61/73/69 43/78/73 44/79/74 67/75/75
f 51/56/76 52/52/77 62/51/70 68/57/78
f 67/75/75 44/79/79 45/82/80 69/80/81
f 68/57/78 70/63/82 50/64/83 51/56/84
f 69/80/81 45/82/85 46/84/86 47/83/87
f 49/71/88 50/64/89 70/63/82 48/72/90
f 57/60/56 63/61/55 76/55/91 77/54/92
f 63/61/55 65/66/63 75/59/93 76/55/91
f 65/66/63 61/73/69 74/65/94 75/59/93
f 61/73/69 67/75/75 73/69/95 74/65/94
f 67/75/75 69/80/81 72/76/96 73/69/95
f 69/80/81 47/83/87 71/81/97 72/76/96
f 72/76/96 71/81/97 78/77/98 79/70/99
f 73/69/95 72/76/96 79/70/99 80/62/100
f 74/65/94 73/69/95 80/62/100 81/58/101
f 75/59/93 74/65/94 81/58/101 82/53/102
f 76/55/91 75/59/93 82/53/102 83/50/103
f 77/54/92 76/55/91 83/50/103 84/49/104
f 79/70/99 78/77/98 48/72/90 70/63/82
f 80/62/100 79/70/99 70/63/82 68/57/78
f 81/58/101 80/62/100 68/57/78 62/51/70
f 82/53/102 81/58/101 62/51/70 66/47/64
f 83/50/103 82/53/102 66/47/64 64/43/57
f 84/49/104 83/50/103 64/43/57 56/46/60
