# This file uses centimeters as units for non-parametric coordinates.

mtllib whiteTailLights.mtl
g default
v 39.302029 70.534042 -205.479233
v 44.734425 70.386841 -204.573441
v 44.734425 69.400848 -204.574509
v 39.187317 69.548058 -205.475342
v 49.867584 70.197716 -203.150299
v 49.867584 69.211731 -203.150299
v 54.994488 69.988266 -201.422379
v 54.994488 69.002281 -201.422379
v 60.122593 69.781113 -199.419296
v 60.122593 68.795128 -199.419296
v 65.250320 69.598419 -197.147690
v 65.250320 68.612434 -197.147690
v 70.376663 69.388794 -194.543884
v 70.376663 68.402817 -194.543884
v 75.470238 69.237923 -191.548950
v 75.470238 68.251930 -191.548950
v 78.954826 69.139786 -189.174576
v 78.954826 68.153793 -189.174576
v 78.954826 69.113266 -189.174576
v 75.470238 69.211403 -191.548950
v 70.376663 69.362274 -194.543884
v 65.250320 69.571899 -197.147690
v 60.122593 69.754593 -199.419296
v 54.994488 69.961746 -201.422379
v 49.867584 70.171196 -203.150299
v 44.734425 70.360321 -204.573471
v 39.298943 70.507523 -205.479126
v 78.954826 68.176514 -189.174576
v 75.470238 68.274651 -191.548950
v 70.376663 68.425537 -194.543884
v 65.250320 68.635155 -197.147690
v 60.122593 68.817848 -199.419296
v 54.994488 69.025002 -201.422379
v 49.867584 69.234451 -203.150299
v 44.734425 69.423569 -204.574478
v 39.189960 69.570778 -205.475433
v 78.944595 68.154083 -189.181549
v 78.944595 68.176804 -189.181549
v 78.944595 69.113548 -189.181549
v 78.944595 69.140076 -189.181549
v 39.207638 69.547516 -205.472046
v 39.210274 69.570236 -205.472137
v 39.318855 70.506981 -205.475815
v 39.321930 70.533501 -205.475922
v -39.302029 70.534042 -205.479233
v -44.734425 70.386841 -204.573441
v -44.734425 69.400848 -204.574509
v -39.187317 69.548058 -205.475342
v -49.867584 70.197716 -203.150299
v -49.867584 69.211731 -203.150299
v -54.994488 69.988266 -201.422379
v -54.994488 69.002281 -201.422379
v -60.122593 69.781113 -199.419296
v -60.122593 68.795128 -199.419296
v -65.250320 69.598419 -197.147690
v -65.250320 68.612434 -197.147690
v -70.376663 69.388794 -194.543884
v -70.376663 68.402817 -194.543884
v -75.470238 69.237923 -191.548950
v -75.470238 68.251930 -191.548950
v -78.954826 69.139786 -189.174576
v -78.954826 68.153793 -189.174576
v -78.954826 69.113266 -189.174576
v -75.470238 69.211403 -191.548950
v -70.376663 69.362274 -194.543884
v -65.250320 69.571899 -197.147690
v -60.122593 69.754593 -199.419296
v -54.994488 69.961746 -201.422379
v -49.867584 70.171196 -203.150299
v -44.734425 70.360321 -204.573471
v -39.298943 70.507523 -205.479126
v -78.954826 68.176514 -189.174576
v -75.470238 68.274651 -191.548950
v -70.376663 68.425537 -194.543884
v -65.250320 68.635155 -197.147690
v -60.122593 68.817848 -199.419296
v -54.994488 69.025002 -201.422379
v -49.867584 69.234451 -203.150299
v -44.734425 69.423569 -204.574478
v -39.189960 69.570778 -205.475433
v -78.944595 68.154083 -189.181549
v -78.944595 68.176804 -189.181549
v -78.944595 69.113548 -189.181549
v -78.944595 69.140076 -189.181549
v -39.207638 69.547516 -205.472046
v -39.210274 69.570236 -205.472137
v -39.318855 70.506981 -205.475815
v -39.321930 70.533501 -205.475922
vt 0.375000 0.500000
vt 0.406250 0.500000
vt 0.406250 0.750000
vt 0.375000 0.750000
vt 0.437500 0.500000
vt 0.437500 0.750000
vt 0.468750 0.500000
vt 0.468750 0.750000
vt 0.500000 0.500000
vt 0.500000 0.750000
vt 0.531250 0.500000
vt 0.531250 0.750000
vt 0.562500 0.500000
vt 0.562500 0.750000
vt 0.593750 0.500000
vt 0.593750 0.750000
vt 0.625000 0.500000
vt 0.625000 0.750000
vt 0.625000 0.506725
vt 0.593750 0.506725
vt 0.562500 0.506725
vt 0.531250 0.506725
vt 0.500000 0.506725
vt 0.468750 0.506725
vt 0.437500 0.506725
vt 0.406250 0.506725
vt 0.375000 0.506725
vt 0.625000 0.744240
vt 0.593750 0.744240
vt 0.562500 0.744240
vt 0.531250 0.744240
vt 0.500000 0.744240
vt 0.468750 0.744240
vt 0.437500 0.744240
vt 0.406250 0.744240
vt 0.375000 0.744240
vt 0.624908 0.750000
vt 0.624908 0.744240
vt 0.624908 0.506725
vt 0.624908 0.500000
vt 0.375115 0.750000
vt 0.375115 0.744240
vt 0.375115 0.506725
vt 0.375115 0.500000
vt 0.375115 0.500000
vt 0.406250 0.500000
vt 0.406250 0.506725
vt 0.375115 0.506725
vt 0.437500 0.500000
vt 0.437500 0.506725
vt 0.468750 0.500000
vt 0.468750 0.506725
vt 0.500000 0.500000
vt 0.500000 0.506725
vt 0.531250 0.500000
vt 0.531250 0.506725
vt 0.562500 0.500000
vt 0.562500 0.506725
vt 0.593750 0.500000
vt 0.593750 0.506725
vt 0.624908 0.500000
vt 0.625000 0.500000
vt 0.625000 0.506725
vt 0.624908 0.506725
vt 0.625000 0.744240
vt 0.624908 0.744240
vt 0.593750 0.744240
vt 0.562500 0.744240
vt 0.531250 0.744240
vt 0.500000 0.744240
vt 0.468750 0.744240
vt 0.437500 0.744240
vt 0.406250 0.744240
vt 0.375115 0.744240
vt 0.625000 0.750000
vt 0.624908 0.750000
vt 0.593750 0.750000
vt 0.562500 0.750000
vt 0.531250 0.750000
vt 0.500000 0.750000
vt 0.468750 0.750000
vt 0.437500 0.750000
vt 0.406250 0.750000
vt 0.375115 0.750000
vt 0.375000 0.744240
vt 0.375000 0.750000
vt 0.375000 0.506725
vt 0.375000 0.500000
vn 0.164075 -0.010950 -0.986387
vn 0.214085 -0.005394 -0.976800
vn 0.212948 -0.005371 -0.977049
vn 0.162112 -0.010841 -0.986713
vn 0.292971 0.000276 -0.956121
vn 0.293056 0.000263 -0.956095
vn 0.341382 0.000000 -0.939925
vn 0.341389 0.000000 -0.939922
vn 0.384274 0.000000 -0.923219
vn 0.384291 0.000000 -0.923212
vn 0.428861 0.000000 -0.903370
vn 0.428901 0.000000 -0.903352
vn 0.479932 0.000000 -0.877306
vn 0.479956 0.000000 -0.877293
vn 0.530131 0.000000 -0.847916
vn 0.530125 0.000000 -0.847920
vn 0.563121 0.000000 -0.826375
vn 0.563213 0.000000 -0.826312
vn 0.563123 0.000000 -0.826373
vn 0.563098 0.000000 -0.826391
vn 0.563115 0.000000 -0.826378
vn 0.563097 0.000000 -0.826391
vn 0.530933 0.000000 -0.847414
vn 0.480967 0.000000 -0.876739
vn 0.429899 0.000000 -0.902877
vn 0.385164 0.000000 -0.922848
vn 0.342413 0.000000 -0.939550
vn 0.294226 0.000253 -0.955736
vn 0.214842 -0.005157 -0.976635
vn 0.162009 -0.010843 -0.986730
vn 0.562890 0.000000 -0.826532
vn 0.563113 0.000000 -0.826380
vn 0.530963 0.000000 -0.847395
vn 0.481023 0.000000 -0.876708
vn 0.429975 0.000000 -0.902841
vn 0.385206 0.000000 -0.922831
vn 0.342431 0.000000 -0.939543
vn 0.294306 0.000307 -0.955711
vn 0.213723 -0.005041 -0.976881
vn 0.160066 -0.010679 -0.987049
vn 0.161632 -0.022623 -0.986592
vn 0.159591 -0.022522 -0.986926
vn 0.161731 -0.022635 -0.986575
vn 0.163419 -0.022984 -0.986289
vn -0.164096 -0.010949 -0.986384
vn -0.162111 -0.010841 -0.986713
vn -0.212949 -0.005371 -0.977049
vn -0.214100 -0.005395 -0.976797
vn -0.293057 0.000263 -0.956095
vn -0.292977 0.000274 -0.956119
vn -0.341388 0.000000 -0.939922
vn -0.341379 0.000000 -0.939926
vn -0.384290 0.000000 -0.923212
vn -0.384270 0.000000 -0.923221
vn -0.428899 0.000000 -0.903353
vn -0.428864 0.000000 -0.903369
vn -0.479953 0.000000 -0.877294
vn -0.479933 0.000000 -0.877305
vn -0.530123 0.000000 -0.847921
vn -0.530132 0.000000 -0.847915
vn -0.563126 0.000000 -0.826371
vn -0.563097 0.000000 -0.826391
vn -0.563296 0.000000 -0.826255
vn -0.562950 0.000000 -0.826491
vn -0.563097 0.000000 -0.826391
vn -0.563288 0.000000 -0.826261
vn -0.480964 0.000000 -0.876740
vn -0.530931 0.000000 -0.847415
vn -0.429897 0.000000 -0.902878
vn -0.385164 0.000000 -0.922848
vn -0.342412 0.000000 -0.939550
vn -0.294227 0.000253 -0.955736
vn -0.214843 -0.005158 -0.976635
vn -0.162007 -0.010843 -0.986730
vn -0.563126 0.000000 -0.826371
vn -0.562582 0.000000 -0.826742
vn -0.481028 0.000000 -0.876705
vn -0.530970 0.000000 -0.847391
vn -0.429975 0.000000 -0.902841
vn -0.385205 0.000000 -0.922831
vn -0.342434 0.000000 -0.939542
vn -0.294309 0.000305 -0.955710
vn -0.213727 -0.005043 -0.976880
vn -0.160063 -0.010680 -0.987049
vn -0.161287 -0.022626 -0.986648
vn -0.159359 -0.022521 -0.986964
vn -0.161401 -0.022637 -0.986629
vn -0.163838 -0.022979 -0.986220
s 1
g whiteTailLights
usemtl phong8SG
f 44/44/1 2/2/2 26/26/3 43/43/4
f 2/2/2 5/5/5 25/25/6 26/26/3
f 5/5/5 7/7/7 24/24/8 25/25/6
f 7/7/7 9/9/9 23/23/10 24/24/8
f 9/9/9 11/11/11 22/22/12 23/23/10
f 11/11/11 13/13/13 21/21/14 22/22/12
f 13/13/13 15/15/15 20/20/16 21/21/14
f 40/40/17 17/17/18 19/19/19 39/39/20
f 39/39/20 19/19/19 28/28/21 38/38/22
f 21/21/14 20/20/16 29/29/23 30/30/24
f 22/22/12 21/21/14 30/30/24 31/31/25
f 23/23/10 22/22/12 31/31/25 32/32/26
f 24/24/8 23/23/10 32/32/26 33/33/27
f 25/25/6 24/24/8 33/33/27 34/34/28
f 26/26/3 25/25/6 34/34/28 35/35/29
f 43/43/4 26/26/3 35/35/29 42/42/30
f 38/38/22 28/28/21 18/18/31 37/37/32
f 30/30/24 29/29/23 16/16/33 14/14/34
f 31/31/25 30/30/24 14/14/34 12/12/35
f 32/32/26 31/31/25 12/12/35 10/10/36
f 33/33/27 32/32/26 10/10/36 8/8/37
f 34/34/28 33/33/27 8/8/37 6/6/38
f 35/35/29 34/34/28 6/6/38 3/3/39
f 42/42/30 35/35/29 3/3/39 41/41/40
f 29/29/23 38/38/22 37/37/32 16/16/33
f 20/20/16 39/39/20 38/38/22 29/29/23
f 15/15/15 40/40/17 39/39/20 20/20/16
f 36/36/41 42/42/30 41/41/40 4/4/42
f 27/27/43 43/43/4 42/42/30 36/36/41
f 1/1/44 44/44/1 43/43/4 27/27/43
s 3
f 88/45/45 87/48/46 70/47/47 46/46/48
f 46/46/48 70/47/47 69/50/49 49/49/50
f 49/49/50 69/50/49 68/52/51 51/51/52
f 51/51/52 68/52/51 67/54/53 53/53/54
f 53/53/54 67/54/53 66/56/55 55/55/56
f 55/55/56 66/56/55 65/58/57 57/57/58
f 57/57/58 65/58/57 64/60/59 59/59/60
f 84/61/61 83/64/62 63/63/63 61/62/64
f 83/64/62 82/66/65 72/65/66 63/63/63
f 65/58/57 74/68/67 73/67/68 64/60/59
f 66/56/55 75/69/69 74/68/67 65/58/57
f 67/54/53 76/70/70 75/69/69 66/56/55
f 68/52/51 77/71/71 76/70/70 67/54/53
f 69/50/49 78/72/72 77/71/71 68/52/51
f 70/47/47 79/73/73 78/72/72 69/50/49
f 87/48/46 86/74/74 79/73/73 70/47/47
f 82/66/65 81/76/75 62/75/76 72/65/66
f 74/68/67 58/78/77 60/77/78 73/67/68
f 75/69/69 56/79/79 58/78/77 74/68/67
f 76/70/70 54/80/80 56/79/79 75/69/69
f 77/71/71 52/81/81 54/80/80 76/70/70
f 78/72/72 50/82/82 52/81/81 77/71/71
f 79/73/73 47/83/83 50/82/82 78/72/72
f 86/74/74 85/84/84 47/83/83 79/73/73
f 73/67/68 60/77/78 81/76/75 82/66/65
f 64/60/59 73/67/68 82/66/65 83/64/62
f 59/59/60 64/60/59 83/64/62 84/61/61
f 80/85/85 48/86/86 85/84/84 86/74/74
f 71/87/87 80/85/85 86/74/74 87/48/46
f 45/88/88 71/87/87 87/48/46 88/45/45
